
<svg xmlns="http://www.w3.org/2000/svg" viewBox="0 0 800 220" width="800" height="220" role="img" aria-label="Good morning, Your portfolio is steady." fill="none">
  

  
  <g class="stroke-primary" color="#132e20">

    
    <path id="l1-G" d="M72 50 C 60 38, 38 40, 30 58 C 20 80, 24 100, 42 100 C 58 100, 66 88, 62 72 L 48 72"></path>

    
    <path id="l1-o1" d="M92 70 C 80 68, 74 82, 82 94 C 94 102, 108 92, 106 78 C 104 68, 94 66, 90 72"></path>

    
    <path id="l1-o2" d="M128 70 C 116 68, 110 82, 118 94 C 130 102, 144 92, 142 78 C 140 68, 130 66, 126 72"></path>

    
    <path id="l1-d" d="M178 28 L 178 98 C 176 104, 164 102, 160 92 C 156 80, 164 68, 176 72"></path>

    
    <path id="l1-m" d="M238 100 L 238 70 C 242 62, 254 64, 256 72 L 256 100 M 256 74 C 262 64, 276 64, 278 74 L 278 100"></path>

    
    <path id="l1-o3" d="M300 72 C 288 72, 284 86, 292 96 C 304 102, 318 92, 316 80 C 314 70, 304 68, 300 74"></path>

    
    <path id="l1-r" d="M336 100 L 336 72 C 340 66, 348 64, 356 68"></path>

    
    <path id="l1-n" d="M374 100 L 374 70 C 380 62, 394 64, 396 74 L 396 100"></path>

    
    <path id="l1-i" d="M418 74 L 418 100"></path>
    <path id="l1-i-dot" d="M418 58 C 419 57, 420 57, 420 58 C 420 59, 419 59, 418 58 Z"></path>

    
    <path id="l1-n2" d="M436 100 L 436 70 C 442 62, 456 64, 458 74 L 458 100"></path>

    
    <path id="l1-g" d="M490 72 C 478 72, 472 84, 478 94 C 488 102, 500 96, 498 84 L 498 72 M 498 94 L 498 118 C 496 130, 482 132, 472 124"></path>

    
    <path id="l1-comma2" d="M516 94 C 520 102, 516 112, 508 116"></path>
  </g>

  
  <g class="stroke-secondary" color="#3d6b52">

    
    <path id="l2-Y" d="M56 136 L 72 170 M 92 136 L 72 170 L 68 186 C 66 192, 60 194, 56 192"></path>

    
    <path id="l2-o1" d="M108 160 C 100 158, 94 170, 100 180 C 110 186, 122 178, 120 168 C 118 160, 110 158, 106 164"></path>

    
    <path id="l2-u" d="M138 158 L 134 180 C 136 186, 146 186, 150 180 L 154 158 M 150 180 L 148 188"></path>

    
    <path id="l2-r" d="M170 182 L 176 158 C 178 154, 184 154, 190 158"></path>

    
    <path id="l2-p" d="M214 158 L 206 200 M 210 166 C 216 156, 228 158, 230 168 C 232 180, 220 186, 212 180"></path>

    
    <path id="l2-o2" d="M250 160 C 242 158, 236 170, 242 180 C 252 186, 264 178, 262 168 C 260 160, 252 158, 248 164"></path>

    
    <path id="l2-r2" d="M278 182 L 284 158 C 286 154, 292 154, 298 158"></path>

    
    <path id="l2-t" d="M316 140 L 308 184 C 308 188, 312 190, 316 188"></path>
    <path id="l2-t-cross" d="M302 156 L 322 154"></path>

    
    <path id="l2-f" d="M342 134 C 346 134, 348 138, 346 146 L 336 196"></path>
    <path id="l2-f-cross" d="M330 156 L 350 154"></path>

    
    <path id="l2-o3" d="M368 160 C 360 158, 354 170, 360 180 C 370 186, 382 178, 380 168 C 378 160, 370 158, 366 164"></path>

    
    <path id="l2-l" d="M402 130 C 396 152, 392 170, 390 184 C 390 188, 394 190, 398 188"></path>

    
    <path id="l2-i" d="M416 158 L 412 184"></path>
    <path id="l2-i-dot" d="M418 144 C 419 143, 420 143, 420 144 C 420 145, 419 145, 418 144 Z"></path>

    
    <path id="l2-o4" d="M436 160 C 428 158, 422 170, 428 180 C 438 186, 450 178, 448 168 C 446 160, 438 158, 434 164"></path>

    
    <path id="l2-i2" d="M472 158 L 468 184"></path>
    <path id="l2-i2-dot" d="M474 144 C 475 143, 476 143, 476 144 C 476 145, 475 145, 474 144 Z"></path>

    
    <path id="l2-s" d="M510 162 C 506 158, 498 158, 494 164 C 490 170, 500 172, 506 176 C 512 180, 508 186, 500 186 C 494 186, 490 184, 488 181"></path>

    
    <path id="l2-s2" d="M552 162 C 548 158, 540 158, 536 164 C 532 170, 542 172, 548 176 C 554 180, 550 186, 542 186 C 536 186, 532 184, 530 181"></path>

    
    <path id="l2-t2" d="M574 140 L 566 184 C 566 188, 570 190, 574 188"></path>
    <path id="l2-t2-cross" d="M560 156 L 580 154"></path>

    
    <path id="l2-e" d="M592 172 C 600 168, 610 170, 608 176 C 606 182, 594 184, 590 178 C 588 170, 596 162, 606 162"></path>

    
    <path id="l2-a" d="M636 164 C 628 160, 620 168, 622 178 C 626 186, 636 184, 638 176 L 642 158 L 638 184 C 640 188, 646 188, 650 184"></path>

    
    <path id="l2-d-bowl" d="M672 164 C 664 160, 654 166, 652 174 C 650 184, 662 188, 670 184 C 676 180, 676 172, 672 166"></path>
    <path id="l2-d-stem" d="M680 134 C 676 154, 674 172, 672 184 C 672 188, 676 190, 680 188"></path>

    
    <path id="l2-y" d="M696 158 L 700 180 C 702 184, 710 184, 714 180 L 720 158 M 714 180 L 708 200 C 704 208, 696 210, 692 206"></path>

    
    <path id="l2-period" d="M734 186 C 735 185, 736 185, 736 186 C 736 187, 735 187, 734 186 Z"></path>
  </g>
</svg>