<svg xmlns="http://www.w3.org/2000/svg" viewBox="0 0 24 24" fill="none">
  <path d="M12 2.5c-1.1 0-2.1.55-2.8 1.45L4.6 10.2c-.9 1.15-1.1 2.65-.55 4 .55 1.35 1.75 2.3 3.2 2.55.9.15 1.8-.05 2.55-.55.25-.15.5-.35.7-.55.2.2.45.4.7.55.75.5 1.65.7 2.55.55 1.45-.25 2.65-1.2 3.2-2.55.55-1.35.35-2.85-.55-4l-4.6-6.25C15.1 3.05 14.1 2.5 12 2.5zm0 2.1l4.15 5.65c.55.7.65 1.6.3 2.4-.35.8-1.05 1.35-1.9 1.5-.55.1-1.1 0-1.55-.3-.35-.25-.6-.55-.75-.9h-.5c-.15.35-.4.65-.75.9-.45.3-1 .4-1.55.3-.85-.15-1.55-.7-1.9-1.5-.35-.8-.25-1.7.3-2.4L12 4.6z" fill="#FF5A5F"/>
  <path d="M12 18c-.55 0-1 .1-1.45.35-.9.45-1.45 1.35-1.45 2.35 0 .35.3.65.65.65s.65-.3.65-.65c0-.55.3-1.05.8-1.3.3-.15.65-.2.95-.15.3.05.6.2.8.4.2.25.35.55.35.9 0 .35.3.65.65.65s.65-.3.65-.65c0-.55-.2-1.05-.55-1.45-.35-.4-.8-.7-1.3-.85-.25-.1-.5-.15-.75-.15v-.1z" fill="#FF5A5F"/>
</svg>
