<svg xmlns="http://www.w3.org/2000/svg" viewBox="0 0 24 24">
  <rect width="24" height="24" rx="4" fill="#003580"/>
  <g transform="translate(4.5, 2.5) scale(0.79)">
    <path d="M4.8 4.36h2.01v2.4c0 .51.2.78.64.84l1.37 0c.98 0 1.61-.62 1.61-1.61 0-1.02-.62-1.63-1.61-1.63h-2.01zm0 6.48v.63c0 .55.23.82.75.85h1.03c.88 0 1.41-.53 1.41-1.41 0-.67-.36-1.46-1.38-1.46h-1.81v1.39z" fill="white"/>
    <path d="M10.57 8.36l-.36.2.32.27c.37.32.99 1.03.99 2.26 0 1.88-1.46 3.1-3.72 3.1h-2.58v0h-.29c-.67-.02-1.21-.57-1.21-1.24V3.97h1.18c0 0 .01 0 .01 0h2.95c2.51 0 4.14 1.37 4.14 3.49 0 1.14-.52 2.12-1.41 2.61" fill="white"/>
  </g>
  <circle cx="18.5" cy="18.5" r="1.8" fill="#499FDD"/>
</svg>
