<svg xmlns="http://www.w3.org/2000/svg" viewBox="0 4 32.2 32.5">
  <path d="M25.5295 36.5086H6.60464C2.96362 36.5086 0 33.545 0 29.8898V10.965C0 7.32397 2.96362 4.36035 6.60464 4.36035H25.5295C29.1846 4.36035 32.1341 7.32397 32.1341 10.965V29.8898C32.1482 33.545 29.1846 36.5086 25.5295 36.5086Z" fill="#0E214B"/>
  <path d="M20.0819 17.795L20.1383 17.8373C21.4931 13.3496 21.9306 11.3738 20.731 10.1602H19.0234V10.2025C20.9286 10.8658 21.3661 12.7851 20.0819 17.795Z" fill="#8EC089"/>
  <path clip-rule="evenodd" d="M25.4714 10.1602C23.665 11.2045 22.5924 13.152 20.3203 17.9502L20.3768 17.9926C22.9876 13.1379 24.4694 11.2045 27.8423 10.2025V10.1602H25.4714V10.1602Z" fill="#2474DE" fill-rule="evenodd"/>
  <path d="M20.1953 17.8797L20.2518 17.922C22.3969 12.8839 22.9472 11.515 23.8363 10.2025V10.1602H22.1005V10.2166C22.284 12.2206 21.5783 14.0693 20.1953 17.8797Z" fill="#E85F24"/>
  <path clip-rule="evenodd" d="M5.91326 10.1602H4.375V10.2025C5.78625 10.7529 6.46365 11.8113 7.02815 14.281C7.02815 14.3092 10.8103 31.6111 10.8103 31.6111H11.6712L7.86078 14.1399C7.1975 11.148 6.50598 10.5976 5.91326 10.1602Z" fill="#76C5F7" fill-rule="evenodd"/>
  <path clip-rule="evenodd" d="M13.9728 30.3974L14.5373 29.2261L11.3479 14.2669C10.7834 11.9383 10.9104 10.8799 11.1503 10.1602H9.90844C9.89433 11.1057 9.93667 11.8819 10.3883 13.8717L13.9728 30.3974Z" fill="#2474DE" fill-rule="evenodd"/>
  <path d="M8.77932 10.1602H7.33984V10.2025C7.98902 10.9787 8.17248 11.9242 8.68053 13.9988L12.5191 31.6252H13.38L9.54139 13.9282C8.991 11.6702 8.90633 11.0351 8.77932 10.1602Z" fill="#318EEE"/>
  <path d="M15.113 28.0266L15.6916 26.8411L13.1232 14.535C12.6433 12.15 12.855 10.9081 13.6453 10.2025V10.1602H12.2764C11.853 11.0492 11.726 11.9383 12.2059 14.3092L15.113 28.0266Z" fill="#E85F24"/>
  <path d="M14.0281 14.6202C13.3366 11.332 14.5785 10.4571 15.1571 10.1748H17.1893V10.2171C14.9878 10.6405 14.3527 11.8401 14.889 14.6202L16.8365 24.4707L16.2579 25.6703L14.0281 14.6202Z" fill="#8EC089"/>
</svg>
